<svg width="98" height="95" viewBox="0 0 98 95" fill="none" xmlns="http://www.w3.org/2000/svg">
<path fill-rule="evenodd" clip-rule="evenodd" d="M0 69.4648C0 69.4648 0.311108 52.9116 23.4498 41.6977C40.9618 35.1485 44.1187 50.92 54.3739 50.92C64.6292 50.92 76.5573 36.4539 90.0905 47.5369C98.3353 54.9413 85.3869 69.5245 86.4476 80.8267C74.4097 83.3122 62.5 89.5 7.0456 85C0.282743 76.8961 0 69.4648 0 69.4648Z" fill="#FEB039"/>
<path d="M58.125 0.218655C43.1345 -1.44696 36.2639 6.8117 34.7024 11.1492C27.3403 11.6191 18.6759 17.2649 16.4485 32.4531C15.9525 35.8356 17.0707 39.205 18.7273 42.1956C32.7064 67.4307 11.5325 76.902 15.9629 79.8556C19.7105 82.354 58.6455 80.5496 69.0556 79.8556C76.3426 77.2531 81.0272 68.925 82.0682 62.1585C83.4295 53.3099 76.3426 49.6664 75.3016 41.8588C74.6674 37.1021 79.9862 29.3668 79.9862 24.6822C79.9862 19.9977 76.8631 2.30067 58.125 0.218655Z" fill="#172F33"/>
<path d="M1.90906 94.4295C5.65668 78.1898 22.9027 73.7829 31.0572 73.6094L66.972 72.5684C75.994 72.5684 94.5587 76.9406 96.6407 94.4295H70.4999H42.4999H1.90906Z" fill="white"/>
<path d="M1.90906 94.4295C5.65668 78.1898 22.9027 73.7829 31.0572 73.6094L66.972 72.5684C75.994 72.5684 94.5587 76.9406 96.6407 94.4295" stroke="#172F33"/>
<path d="M82.8605 76.3909C84.4172 77.6831 89.7083 82.1204 91.1401 87.8493" stroke="#172F33"/>
<path d="M9.02075 82.1201C7.46406 83.4124 5.6786 89.2814 6.63346 93.1013" stroke="#172F33"/>
<path d="M37.3022 79.3351C36.8858 75.5875 38.1697 60.0765 38.8637 52.7894C35.2202 50.7073 31.0562 42.9 33.6587 39.2565C35.7407 36.3416 39.7313 38.736 41.4663 40.2975C40.4253 33.7044 42.0909 20.4141 57.0814 19.9977C75.8195 19.4772 74.258 48.1049 70.0939 60.0765C67.9214 66.3226 61.7664 68.4046 59.1638 67.3636C60.2048 68.2238 60.2048 76.8947 60.2048 80.8967C60.2048 84.0199 57.0814 89.2247 50.8353 89.2247C43.0278 89.2247 37.8227 84.0196 37.3022 79.3351Z" fill="white"/>
<path d="M49.2738 60.597C50.4387 61.5678 54.4793 65.8021 59.1638 67.3636M59.1638 67.3636C61.7664 68.4046 67.9214 66.3226 70.0939 60.0765C74.258 48.1049 75.8195 19.4772 57.0814 19.9977C42.0909 20.4141 40.4253 33.7044 41.4663 40.2975C39.7313 38.736 35.7407 36.3416 33.6587 39.2565C31.0562 42.9 35.2202 50.7073 38.8637 52.7894C38.1697 60.0765 36.8858 75.5875 37.3022 79.3351C37.8227 84.0196 43.0278 89.2247 50.8353 89.2247C57.0814 89.2247 60.2048 84.0199 60.2048 80.8967C60.2048 76.8947 60.2048 68.2238 59.1638 67.3636Z" stroke="#172F33"/>
<path d="M49.2748 32.4902C49.9688 31.4492 52.1896 29.5754 55.5208 30.4082" stroke="#172F33"/>
<path d="M65.41 29.887C66.9715 29.3665 70.511 29.0542 72.1766 31.969" stroke="#172F33"/>
<ellipse cx="53.6186" cy="40.0449" rx="2.2615" ry="2.23974" fill="#172F33"/>
<ellipse cx="69.2344" cy="39.9346" rx="2.2615" ry="2.23974" fill="#172F33"/>
<path d="M62.2875 39.7769C64.0225 41.1649 65.931 45.5024 65.931 48.6254C65.931 50.1869 62.2875 50.0134 60.726 49.6664" stroke="#172F33"/>
<path d="M57.0828 54.8711C57.9503 56.4326 59.373 57.4736 62.2878 57.4736C65.2026 57.4736 66.2783 56.2591 66.4518 54.8711" stroke="#172F33"/>
</svg>
