<svg width="140" height="110" viewBox="0 0 140 110" fill="none" xmlns="http://www.w3.org/2000/svg">
<path fill-rule="evenodd" clip-rule="evenodd" d="M44.0017 61.5002C44.0017 61.5002 67.8358 86.753 52.5035 68.4993C40.166 56.3324 58.1793 57.8628 49.502 53.9995C40.8248 50.1361 51.5863 23.0315 35.9389 27.3588C26.1591 30.5499 31.5933 47.8302 26.4162 57.0427C20.0238 69.5823 6.11946 82.965 18.7562 93.8511C35.4157 108.704 39.0005 88.4995 44 81.9998C47.5005 68.4989 44.0017 61.5002 44.0017 61.5002Z" fill="#8656FF"/>
<path fill-rule="evenodd" clip-rule="evenodd" d="M128.26 97.4253C128.814 87.9431 132.068 77.6999 122.5 64.5842C116.064 56.5584 111.946 71.0928 101.499 69.4976C76.9992 79.9976 48.7288 48.9207 42.9992 64.5849C36.9758 80.2227 83.9997 110.499 128.26 97.4253Z" fill="#8656FF"/>
<path fill-rule="evenodd" clip-rule="evenodd" d="M1.00044 107.499C1.00044 93.999 14.6829 86.7879 40.8184 78.6909H57.0914C77.6432 85.0558 84.6899 88.9739 89.8734 92.1724C95.0569 95.3708 97.0524 106.503 97.0002 109.999" fill="white"/>
<path d="M1.00098 107.5C1.00098 93.9995 14.6835 86.7884 40.8189 78.6914H57.092C77.6438 85.0562 84.6904 88.9744 89.8739 92.1729C95.0574 95.3713 97.6227 98.7183 97.5705 102.214" stroke="#172F33"/>
<path d="M85.4254 89.4693C87.0332 90.804 88.1099 93.4439 87.5645 96.8972" stroke="#172F33"/>
<path d="M16.0547 87.9991C14.4469 89.3338 7.26677 95.2154 7.81212 98.6687" stroke="#172F33"/>
<path d="M24.7927 31.1715C25.8544 33.5585 26.9279 39.9426 26.0342 48.8181C24.7927 61.1468 26.1621 74.4611 36.8712 74.4611C37.3815 76.1945 37.4544 78.2752 37.6869 81.4033C38.0685 86.5374 42.5663 90.1892 47.7013 89.8185L50.6223 89.6076C55.7482 89.2376 59.7308 84.9932 59.7743 79.8541L59.9617 57.688L64.9794 59.6675L69.4175 52.2707L71.8828 45.8602L67.7984 35.3431L57.2684 28.0871L39.1373 27.4575L24.7927 31.1715Z" fill="white"/>
<path d="M36.8712 74.4611C26.1621 74.4611 24.7927 61.1468 26.0342 48.8181C26.9279 39.9426 25.8544 33.5585 24.7927 31.1715L39.1373 27.4575L57.2684 28.0871L67.7984 35.3431L71.8828 45.8602L69.4175 52.2707L64.9794 59.6675L59.9617 57.688L59.7743 79.8541C59.7308 84.9932 55.7482 89.2376 50.6223 89.6076L47.7013 89.8185C42.5663 90.1892 38.0685 86.5374 37.6869 81.4033C37.4544 78.2752 37.3815 76.1945 36.8712 74.4611ZM36.8712 74.4611C38.8441 74.4099 44.268 73.4748 47.7013 71.0092" stroke="#172F33"/>
<path d="M54.563 40.767C54.4872 46.643 56.0533 50.8071 56.8459 52.1547C57.0389 50.3301 57.2327 48.6133 57.5847 45.8602C58.0247 42.4189 63.7689 37.7128 66.954 44.874C68.9265 53.7502 65.0769 57.7912 60.0189 57.1043L59.9322 67.3596C59.8287 67.6654 59.8222 67.9457 59.9249 68.2154L59.9322 67.3596C60.5256 65.6051 64.3073 63.0078 68.9265 56.7089C74.3508 48.819 75.1272 39.6575 72.6491 36.0844C74.0357 33.7289 76.1719 27.5857 73.6239 21.8568C68.9153 11.8956 57.6665 13.344 52.6306 15.3133C50.4758 12.9875 46.8489 8.4041 40.8533 8.38025C28.1961 8.32989 23.897 17.4288 24.5429 19.9236C20.0157 20.4303 14.7256 23.1309 14.6085 27.8196C14.5149 31.5706 18.2484 33.3103 20.1268 33.7112C17.5207 35.9831 19.6014 39.393 20.9564 39.4858C25.0214 39.7643 25.2052 43.0442 26.174 46.7862C28.0228 43.6456 26.174 38.9565 26.174 35.0115C33.9521 38.3216 40.7601 34.5803 43.7096 32.2638C45.0796 34.1274 48.4756 37.8178 51.0995 37.6709C54.3793 37.4872 54.7023 38.7345 54.563 40.767Z" fill="#172F33"/>
<path d="M36.8223 49.1648C35.7885 51.427 33.8125 56.1069 34.1786 56.7292C34.6362 57.5071 37.0579 57.992 38.3494 57.8481" stroke="#172F33"/>
<circle cx="31.1415" cy="49.2417" r="1.65359" transform="rotate(0.484373 31.1415 49.2417)" fill="#172F33"/>
<circle cx="45.1903" cy="50.1875" r="1.65359" transform="rotate(0.484373 45.1903 50.1875)" fill="#172F33"/>
<path d="M28.139 44.4464C29.3684 43.528 32.41 42.3359 34.7415 44.9153" stroke="#172F33"/>
<path d="M41.9605 45.4927C43.2593 44.5057 46.6457 43.2301 49.8011 46.0232" stroke="#172F33"/>
<path d="M42.5004 64.4906C41.4814 65.0979 38.8681 66.1945 36.5662 65.7222C34.2642 65.2498 33.2597 63.8665 33.0452 63.2338" stroke="#172F33"/>
<path d="M85.7007 65.6334C85.9614 60.0081 86.3328 58.9007 91.7148 59.4109L117.389 60.6779L111.58 63.7018C111.58 63.7018 110.94 68.9573 110.94 78.2352C110.94 85.3357 109.611 90.3341 99.8226 89.7935C91.029 89.3065 94.5815 82.2489 94.5815 82.2452C95.7477 69.8829 85.4392 71.27 85.7007 65.6334Z" fill="white" stroke="#172F33"/>
<path d="M114.079 79.4493C116.825 80.1971 115.975 85.0281 115.975 85.0281C129.303 85.0281 139.607 93.8798 138.488 100.276L66.4979 101.764C62.7678 93.2101 81.011 85.7813 88.7501 86.4852C88.7501 86.4852 86.8334 84.3449 87.3974 83.1548C88.209 81.443 88.9779 80.9679 90.9722 80.2221C97.1247 77.9198 107.228 77.5868 114.079 79.4493Z" fill="white"/>
<path d="M88.7501 86.4852C88.7501 86.4852 86.8334 84.3449 87.3974 83.1548C88.209 81.443 88.9779 80.9679 90.9722 80.2221C97.1247 77.9198 107.228 77.5868 114.079 79.4493C116.825 80.1971 115.975 85.0281 115.975 85.0281C129.303 85.0281 139.607 93.8798 138.488 100.276M88.7501 86.4852C92.0793 85.4998 93.6699 83.8288 107.396 85.0281M88.7501 86.4852C81.011 85.7813 62.7678 93.2101 66.4979 101.764" stroke="#172F33"/>
<path d="M130.13 88.8125C132.945 90.0635 133.939 94.7761 134.38 96.5386" stroke="#172F33"/>
<path d="M119.904 51.1003C121.279 50.8119 122.72 51.0489 124.048 51.5095C125.903 52.1527 127.743 53.4176 128.21 55.3249C128.73 57.445 127.421 59.5311 126.915 61.6546C126.803 62.1251 126.731 62.6253 126.876 63.0866C127.153 63.9715 128.098 64.4258 128.904 64.8822C130.905 66.014 132.559 67.7487 133.595 69.801C134.044 70.6909 134.382 71.7223 134.088 72.6748C133.81 73.574 133.003 74.2315 132.124 74.5674C131.245 74.9033 130.289 74.9659 129.349 75.0253C130.411 75.4161 131.585 75.453 132.621 75.9062C133.658 76.3597 134.568 77.4873 134.198 78.5564C134.015 79.0861 133.56 79.4728 133.099 79.7914C129.659 82.1676 124.661 81.9788 121.41 79.349C120.96 78.985 120.517 78.5334 120.441 77.9593C120.366 77.3852 120.861 76.7263 121.426 76.8537C121.952 76.972 122.15 77.6893 121.912 78.1736C121.675 78.6583 121.16 78.9398 120.657 79.135C118.432 79.9981 115.675 79.6572 113.995 77.9622C112.315 76.2667 112.107 73.1926 113.815 71.5258C114.299 71.054 114.895 70.7111 115.389 70.2508C115.884 69.7901 116.287 69.1484 116.205 68.4777C116.074 67.4108 114.874 66.8728 114.21 66.0279C113.147 64.6775 113.575 62.6896 114.34 61.1512C115.105 59.6124 116.178 58.1415 116.302 56.4278C116.387 55.2413 116.089 54.2314 116.765 53.1985C117.467 52.1264 118.662 51.3601 119.904 51.1003Z" fill="#172F33"/>
<path d="M115.94 67.7763C115.939 67.7763 115.939 67.7763 115.939 67.7764C115.578 67.222 114.935 66.8028 114.443 66.2933C114.935 66.8027 115.578 67.2219 115.94 67.7763ZM114.439 66.2891C114.438 66.2888 114.438 66.288 114.437 66.2876C114.438 66.288 114.438 66.2888 114.439 66.2891ZM127.23 60.5759C127.811 58.8301 128.634 57.1018 128.217 55.3506C128.634 57.1005 127.812 58.8279 127.232 60.5719C127.231 60.5732 127.231 60.5746 127.23 60.5759ZM128.216 55.3498C128.215 55.3461 128.215 55.3421 128.213 55.3385C128.215 55.3421 128.215 55.3461 128.216 55.3498ZM128.213 55.3376C128.212 55.3332 128.211 55.3291 128.21 55.3255C128.211 55.3295 128.212 55.3332 128.213 55.3376Z" fill="#DE969F"/>
<path d="M87.5473 70.8361C89.7368 72.883 93.0502 74.1744 98.0787 74.4019C98.5454 74.4248 99.0265 74.4348 99.5229 74.4388C106.18 74.4757 111.873 70.7576 114.801 65.0458C116.163 62.3905 116.932 59.296 116.918 55.9359C116.873 44.9765 108.455 35.6812 98.1555 35.5584C87.8968 35.4321 82.9459 43.1199 83.1863 55.4828C83.2226 57.3958 83.3043 59.2405 83.4949 60.9707C83.9371 65.0004 84.9874 68.4437 87.5473 70.8361Z" fill="white"/>
<path d="M87.5473 70.8361C89.7368 72.883 93.0502 74.1744 98.0787 74.4019C98.5454 74.4248 99.0265 74.4348 99.5229 74.4388C106.18 74.4757 111.873 70.7576 114.801 65.0458C116.163 62.3905 116.932 59.296 116.918 55.9359C116.873 44.9765 108.455 35.6812 98.1555 35.5583C87.8968 35.4321 82.9459 43.1199 83.1863 55.4828C83.2226 57.3958 83.3043 59.2405 83.4949 60.9707C83.9371 65.0004 84.9874 68.4437 87.5473 70.8361" stroke="#172F33"/>
<path d="M101.302 53.2274C100.953 52.1585 99.184 50.6703 96.9182 51.4738" stroke="#172F33"/>
<path d="M90.332 51.1473C89.2089 50.8892 87.5878 50.959 87.0562 53.2969" stroke="#172F33"/>
<path d="M94.312 56.5309C93.1958 57.6144 92.1563 60.7652 92.3655 62.9418C92.4701 64.03 94.9978 63.665 96.0628 63.3186" stroke="#172F33"/>
<path d="M98.1111 67.4826C97.3803 68.5585 96.4996 68.9857 94.9188 68.9475C92.5522 68.8903 91.4613 67.7525 91.3439 66.7776" stroke="#172F33"/>
<path d="M99.5504 47.4429L99.5559 47.4256C99.5726 47.3934 99.5798 47.3801 99.5504 47.4429Z" fill="#F0395B"/>
<path d="M122.659 39.6129C122.377 39.0594 122.057 38.5318 121.71 38.022C120.489 36.2224 118.893 34.7044 117.14 33.4592C116.377 32.9204 115.577 32.4275 114.755 31.9985C109.11 29.0094 102.293 28.5217 96.1653 30.3598C93.6342 31.1027 91.2207 32.261 89.0519 33.7939C88.2581 34.3455 87.5064 34.9549 86.7887 35.6119C86.0147 36.3227 85.2825 37.0915 84.6208 37.9195C83.432 39.3946 82.3965 41.0725 82.0756 42.9511C81.852 44.2833 82.0528 46.1677 82.9214 47.3774C86.4999 46.7284 90.1746 46.537 93.7801 46.6665C94.2972 46.6851 94.8119 46.7171 95.3248 46.7568C95.2981 46.4234 95.2409 46.0995 95.1986 45.833C95.0072 44.5971 95.0413 43.3307 95.2816 42.1073C95.2447 42.9236 95.3066 43.7434 95.4733 44.5431C95.63 45.2933 95.8849 46.0057 96.2361 46.6868C96.2711 46.7551 96.3822 46.7178 96.3504 46.6438C95.6941 45.0991 95.4051 43.395 95.5566 41.7213C95.5974 41.2741 95.67 40.8296 95.7705 40.3917C95.8416 40.2018 95.9144 40.0121 95.9968 39.8266C95.701 41.3111 95.6906 45.0485 96.8794 46.9079C97.7881 47.0184 98.691 47.1676 99.5887 47.3537C99.8472 46.726 99.7271 46.2475 99.4509 45.6346C98.7354 44.0541 98.319 42.4778 98.4444 40.7118C98.5013 39.8564 98.6845 39.0161 98.9567 38.208C98.9874 38.1257 99.0182 38.0521 99.0482 37.979C99.006 38.5178 98.9264 39.0646 98.9104 39.6142C98.8778 40.3308 98.9091 41.0405 98.9762 41.7523C99.1053 43.0916 99.4502 44.46 100.121 45.6186C100.996 47.1363 101.973 47.856 103.205 48.3314C103.502 48.4285 103.799 48.5269 104.095 48.6265C104.533 48.753 105 48.8677 105.505 48.9876C107.527 49.4712 109.702 50.9784 110.588 52.977C111.073 54.053 110.816 55.3374 110.863 56.4863C110.905 57.5607 110.836 58.612 112.056 58.5648C112.648 58.542 113.061 57.9231 113.588 57.2934C114.116 56.6632 114.759 56.0223 115.811 55.9573C117.915 55.8269 118.227 58.0575 119.496 57.4203C120.247 57.0444 120.764 56.0235 121.227 55.3915C124.553 50.8895 125.251 44.6827 122.659 39.6129Z" fill="#172F33"/>
<path d="M117.982 52.7931C118.716 52.9189 119.417 53.2956 120.01 54.0192C120.662 54.815 120.956 55.8073 121.041 56.7649C121.224 58.8307 120.462 60.8097 119.039 62.2037C117.858 63.3606 115.666 64.6808 113.793 63.5724C112.962 63.0801 112.54 62.1516 112.315 61.2752C111.825 59.3679 111.551 56.9538 112.693 55.3824C113.708 53.9858 115.965 52.4467 117.982 52.7931Z" fill="white"/>
<path d="M97.8411 56.7335C97.8973 57.7008 98.4523 58.455 99.0805 58.4185C99.7092 58.382 100.173 57.568 100.116 56.6008C100.06 55.6332 99.5049 54.8789 98.8763 54.9154C98.248 54.9519 97.7844 55.7659 97.8411 56.7335Z" fill="#172F33"/>
<path d="M87.7953 56.7335C87.8515 57.7008 88.4065 58.455 89.0348 58.4185C89.6634 58.382 90.127 57.568 90.0704 56.6008C90.0141 55.6332 89.4591 54.8789 88.8305 54.9154C88.2023 54.9519 87.7387 55.7659 87.7953 56.7335Z" fill="#172F33"/>
</svg>
